<svg width="860" height="149" viewBox="0 0 860 149" fill="none" xmlns="http://www.w3.org/2000/svg">
<g clip-path="url(#clip0_9_2)">
<path d="M70.7657 73.4029C80.4714 76.1057 86.86 83.3543 86.86 94.78C86.86 109.523 75.68 118 53.9343 118H12.9V32H51.4771C71.2572 32 82.3143 40.3543 82.3143 54.2371C82.3143 63.5743 77.5229 70.0857 70.7657 73.4029ZM50.3714 41.9514H25.1857V69.4714H50.3714C62.9029 69.4714 70.0286 64.8029 70.0286 55.7114C70.0286 46.62 62.9029 41.9514 50.3714 41.9514ZM53.4429 108.049C67.08 108.049 74.4514 103.749 74.4514 93.7971C74.4514 83.8457 67.08 79.4229 53.4429 79.4229H25.1857V108.049H53.4429ZM125.54 118V32H137.826V107.311H184.388V118H125.54ZM255.407 118.983C228.992 118.983 209.581 100.186 209.581 75C209.581 49.8143 228.992 31.0171 255.407 31.0171C281.575 31.0171 300.987 49.6914 300.987 75C300.987 100.309 281.575 118.983 255.407 118.983ZM255.407 108.049C274.449 108.049 288.701 94.0429 288.701 75C288.701 55.9571 274.449 41.9514 255.407 41.9514C236.118 41.9514 221.867 55.9571 221.867 75C221.867 94.0429 236.118 108.049 255.407 108.049ZM378.245 118.983C351.83 118.983 332.419 100.186 332.419 75C332.419 49.8143 351.83 31.0171 378.245 31.0171C404.413 31.0171 423.825 49.6914 423.825 75C423.825 100.309 404.413 118.983 378.245 118.983ZM378.245 108.049C397.287 108.049 411.539 94.0429 411.539 75C411.539 55.9571 397.287 41.9514 378.245 41.9514C358.956 41.9514 344.705 55.9571 344.705 75C344.705 94.0429 358.956 108.049 378.245 108.049ZM553.788 118H541.994L541.871 55.3428L510.788 107.557H505.137L474.054 55.7114V118H462.26V32H472.334L508.208 92.4457L543.591 32H553.665L553.788 118ZM599.255 118V32H611.541V118H599.255ZM718.619 32H730.905V118H720.831L669.231 53.8686V118H656.945V32H667.019L718.619 96.1314V32ZM835.889 102.52V74.5086H847.684V108.049C839.084 115.297 827.166 118.983 815.126 118.983C788.712 118.983 769.301 100.431 769.301 75C769.301 49.5686 788.712 31.0171 815.372 31.0171C829.009 31.0171 840.558 35.5629 848.421 44.2857L840.804 51.9028C833.678 45.0228 825.569 41.9514 815.864 41.9514C795.961 41.9514 781.586 55.8343 781.586 75C781.586 93.92 795.961 108.049 815.741 108.049C822.989 108.049 829.746 106.451 835.889 102.52Z" fill="#1E1E1E"/>
</g>
<defs>
<clipPath id="clip0_9_2">
<rect width="860" height="149" fill="white"/>
</clipPath>
</defs>
</svg>
